<svg id="Layer_1" data-name="Layer 1" xmlns="http://www.w3.org/2000/svg" viewBox="0 0 138 38"><defs><style>.cls-1{fill:#e4103d;}.cls-2{fill:#fff;}</style></defs><title>logo</title><path class="cls-1" d="M2.1,9.33L15,4.13l12.87-.8,5.63,2.74s4,4.68,4,5.33,2.93,13.71,2.93,13.71l0.32,6L36,33.56,25.92,36.13s-9-.65-9.66-1-8.53-3.88-8.53-3.88L3.38,24.18Z"/><path class="cls-2" d="M0,8C0,54.71,42.09,32.92,42.09,32.92,44.26-21.6,0,8,0,8ZM38.63,30.62s-34,17.64-34-20c0,0,35.74-23.93,33.9,20.07Z"/><path class="cls-2" d="M11.77,14.25c0,31.1,28.4,16.57,28.4,16.57C41.64-5.54,11.77,14.25,11.77,14.25Zm27,15.2s-21.47,11-21.47-12.6c0,0,22.62-15,21.53,12.59H38.81Z"/><path class="cls-2" d="M23.93,20.64c0,16.61,15.15,8.83,15.15,8.83C39.88,10.09,23.93,20.64,23.93,20.64Z"/><path class="cls-2" d="M69.82,26a7.33,7.33,0,0,1-2.76,6q-2.75,2.18-7.65,2.18a18,18,0,0,1-8-1.71V27a32.87,32.87,0,0,0,4.84,1.8,14.29,14.29,0,0,0,3.63.52,5.13,5.13,0,0,0,3-.76A2.58,2.58,0,0,0,64,26.32a2.49,2.49,0,0,0-.51-1.48,5.2,5.2,0,0,0-1.32-1.25,34.88,34.88,0,0,0-3.67-1.94,17.32,17.32,0,0,1-3.87-2.35,8.79,8.79,0,0,1-2.07-2.62,7.48,7.48,0,0,1-.77-3.49,7.33,7.33,0,0,1,2.54-5.91,10.53,10.53,0,0,1,7-2.12,16.55,16.55,0,0,1,4.2.52,28.85,28.85,0,0,1,4.18,1.47l-1.93,4.67A28.21,28.21,0,0,0,64,10.51a12,12,0,0,0-2.9-.37,3.86,3.86,0,0,0-2.61.8A2.62,2.62,0,0,0,57.64,13,2.57,2.57,0,0,0,58,14.41a4,4,0,0,0,1.17,1.14A36.1,36.1,0,0,0,63,17.5a15.11,15.11,0,0,1,5.43,3.81A7.45,7.45,0,0,1,69.82,26Z"/><path class="cls-2" d="M83.66,34.25q-5.21,0-8.15-2.91t-2.9-8.18q0-5.44,2.71-8.42a9.66,9.66,0,0,1,7.48-2.92,9.5,9.5,0,0,1,7.13,2.62,9.91,9.91,0,0,1,2.54,7.2v2.91H78.54A5.69,5.69,0,0,0,80,28.43a5.22,5.22,0,0,0,3.87,1.42,16.17,16.17,0,0,0,3.72-.37,18.41,18.41,0,0,0,3.64-1.3v4.57A13.82,13.82,0,0,1,88,33.9,20.76,20.76,0,0,1,83.66,34.25ZM82.79,16a3.74,3.74,0,0,0-2.9,1.19,5.53,5.53,0,0,0-1.22,3.39h8.28a5,5,0,0,0-1.14-3.39A3.86,3.86,0,0,0,82.79,16Z"/><path class="cls-2" d="M115.68,33.89h-5.89V21.28a6.1,6.1,0,0,0-.88-3.52,3,3,0,0,0-2.65-1.17,4,4,0,0,0-3.57,1.66q-1.1,1.66-1.1,5.49V33.89H95.69V12.23h4.51L101,15h0.33a6.23,6.23,0,0,1,2.75-2.38,9.22,9.22,0,0,1,3.93-.81,7.54,7.54,0,0,1,5.7,2.06,8.22,8.22,0,0,1,1.93,5.9V33.89h0Z"/><path class="cls-2" d="M133.86,33.89L132.72,31h-0.15a8.71,8.71,0,0,1-3.07,2.61,9.87,9.87,0,0,1-4.1.73,6.62,6.62,0,0,1-4.88-1.82,6.86,6.86,0,0,1-1.8-5,5.72,5.72,0,0,1,2.41-5.08q2.41-1.64,7.25-1.81l3.75-.12v-1q0-3.3-3.37-3.3a15.28,15.28,0,0,0-6.08,1.58l-1.93-4A17.52,17.52,0,0,1,129,11.83q4.34,0,6.66,1.94A7.15,7.15,0,0,1,138,19.59v14.3h-4.14Zm-1.74-10-2.28.08a7.29,7.29,0,0,0-3.87,1,2.91,2.91,0,0,0-1.26,2.6q0,2.5,2.9,2.5a4.52,4.52,0,0,0,3.28-1.18,4.16,4.16,0,0,0,1.23-3.18V23.85Z"/></svg>